<mxfile host="Electron" modified="2023-05-20T12:16:50.705Z" agent="Mozilla/5.0 (Windows NT 10.0; Win64; x64) AppleWebKit/537.36 (KHTML, like Gecko) draw.io/21.2.8 Chrome/112.0.5615.165 Electron/24.2.0 Safari/537.36" etag="UBaNQjgUbq8P-eCBpjU0" version="21.2.8" type="device">
  <diagram name="Page-1" id="1PqbhJRjo_kHHZn_KNGG">
    <mxGraphModel dx="545" dy="324" grid="1" gridSize="10" guides="1" tooltips="1" connect="1" arrows="1" fold="1" page="1" pageScale="1" pageWidth="850" pageHeight="1100" math="0" shadow="0">
      <root>
        <mxCell id="0" />
        <mxCell id="1" parent="0" />
        <mxCell id="-fn_32F01CiFZGLoMzf9-1" value="" style="rounded=1;whiteSpace=wrap;html=1;arcSize=3;fontSize=22;fontFamily=Comic Sans MS;fontStyle=1;opacity=60;fillColor=#f5f5f5;gradientColor=#B3B3B3;strokeColor=#B3B3B3;fontColor=#FFFFFF;" parent="1" vertex="1">
          <mxGeometry x="80" y="80" width="640" height="520" as="geometry" />
        </mxCell>
        <mxCell id="-fn_32F01CiFZGLoMzf9-3" value="&lt;font style=&quot;font-size: 22px;&quot;&gt;&lt;span style=&quot;font-size: 22px;&quot;&gt;LIB&lt;/span&gt;&lt;/font&gt;" style="rounded=1;whiteSpace=wrap;html=1;fontSize=22;fontFamily=Comic Sans MS;fontStyle=1;fillColor=#dae8fc;gradientColor=#7ea6e0;strokeColor=#7EA6E0;fontColor=#FFFFFF;" parent="1" vertex="1">
          <mxGeometry x="100" y="100" width="120" height="400" as="geometry" />
        </mxCell>
        <mxCell id="-fn_32F01CiFZGLoMzf9-4" value="&lt;font style=&quot;font-size: 22px;&quot;&gt;&lt;span style=&quot;font-size: 22px;&quot;&gt;MICROCONTROLLER&lt;/span&gt;&lt;/font&gt;" style="rounded=1;whiteSpace=wrap;html=1;direction=south;fontSize=22;fontFamily=Comic Sans MS;fontStyle=1;fillColor=#e6d0de;gradientColor=#d5739d;strokeColor=#D5739D;gradientDirection=east;fontColor=#FFFFFF;" parent="1" vertex="1">
          <mxGeometry x="230" y="520" width="480" height="60" as="geometry" />
        </mxCell>
        <mxCell id="-fn_32F01CiFZGLoMzf9-5" value="&lt;font style=&quot;font-size: 22px;&quot;&gt;&lt;span style=&quot;font-size: 22px;&quot;&gt;MCAL&lt;/span&gt;&lt;/font&gt;" style="rounded=1;whiteSpace=wrap;html=1;direction=south;fontSize=22;fontFamily=Comic Sans MS;fontStyle=1;fillColor=#f8cecc;gradientColor=#ea6b66;strokeColor=#EA6B66;gradientDirection=east;fontColor=#FFFFFF;" parent="1" vertex="1">
          <mxGeometry x="230" y="380" width="480" height="120" as="geometry" />
        </mxCell>
        <mxCell id="-fn_32F01CiFZGLoMzf9-6" value="&lt;font style=&quot;font-size: 22px;&quot;&gt;&lt;span style=&quot;font-size: 22px;&quot;&gt;ECUAL&lt;/span&gt;&lt;/font&gt;" style="rounded=1;whiteSpace=wrap;html=1;direction=south;fontSize=22;fontFamily=Comic Sans MS;fontStyle=1;fillColor=#fff2cc;gradientColor=#ffd966;strokeColor=#FFD966;gradientDirection=east;fontColor=#FFFFFF;" parent="1" vertex="1">
          <mxGeometry x="230" y="240" width="480" height="120" as="geometry" />
        </mxCell>
        <mxCell id="-fn_32F01CiFZGLoMzf9-7" value="&lt;font style=&quot;font-size: 22px;&quot;&gt;&lt;span style=&quot;font-size: 22px;&quot;&gt;APP&lt;/span&gt;&lt;/font&gt;" style="rounded=1;whiteSpace=wrap;html=1;direction=south;fontSize=22;fontFamily=Comic Sans MS;fontStyle=1;fillColor=#d5e8d4;gradientColor=#97d077;strokeColor=#97D077;gradientDirection=east;fontColor=#FFFFFF;" parent="1" vertex="1">
          <mxGeometry x="230" y="100" width="480" height="120" as="geometry" />
        </mxCell>
        <mxCell id="-fn_32F01CiFZGLoMzf9-8" value="" style="rounded=1;whiteSpace=wrap;html=1;arcSize=3;fontSize=22;fontFamily=Comic Sans MS;fontStyle=1;opacity=60;fillColor=#f5f5f5;gradientColor=#b3b3b3;strokeColor=#B3B3B3;fontColor=#FFFFFF;" parent="1" vertex="1">
          <mxGeometry x="80" y="760" width="640" height="520" as="geometry" />
        </mxCell>
        <mxCell id="-fn_32F01CiFZGLoMzf9-9" value="" style="rounded=1;whiteSpace=wrap;html=1;fontSize=22;fontFamily=Comic Sans MS;fontStyle=1;fillColor=#dae8fc;gradientColor=#7ea6e0;strokeColor=#6c8ebf;fontColor=#FFFFFF;opacity=60;" parent="1" vertex="1">
          <mxGeometry x="100" y="780" width="120" height="400" as="geometry" />
        </mxCell>
        <mxCell id="-fn_32F01CiFZGLoMzf9-10" value="&lt;font style=&quot;font-size: 22px;&quot;&gt;&lt;span style=&quot;font-size: 22px;&quot;&gt;MICROCONTROLLER&lt;/span&gt;&lt;/font&gt;" style="rounded=1;whiteSpace=wrap;html=1;direction=south;fontSize=22;fontFamily=Comic Sans MS;fontStyle=1;fillColor=#e6d0de;gradientColor=#d5739d;strokeColor=#D5739D;gradientDirection=east;fontColor=#FFFFFF;" parent="1" vertex="1">
          <mxGeometry x="230" y="1200" width="480" height="60" as="geometry" />
        </mxCell>
        <mxCell id="-fn_32F01CiFZGLoMzf9-11" value="" style="rounded=1;whiteSpace=wrap;html=1;direction=south;fontSize=22;fontFamily=Comic Sans MS;fontStyle=1;fillColor=#f8cecc;gradientColor=#ea6b66;strokeColor=#EA6B66;gradientDirection=east;fontColor=#FFFFFF;opacity=60;" parent="1" vertex="1">
          <mxGeometry x="230" y="1060" width="480" height="120" as="geometry" />
        </mxCell>
        <mxCell id="-fn_32F01CiFZGLoMzf9-12" value="" style="rounded=1;whiteSpace=wrap;html=1;direction=south;fontSize=22;fontFamily=Comic Sans MS;fontStyle=1;fillColor=#fff2cc;gradientColor=#ffd966;strokeColor=#FFD966;gradientDirection=east;fontColor=#FFFFFF;opacity=60;" parent="1" vertex="1">
          <mxGeometry x="230" y="920" width="480" height="120" as="geometry" />
        </mxCell>
        <mxCell id="-fn_32F01CiFZGLoMzf9-13" value="&lt;font style=&quot;font-size: 22px;&quot;&gt;&lt;span style=&quot;font-size: 22px;&quot;&gt;APP&lt;/span&gt;&lt;/font&gt;" style="rounded=1;whiteSpace=wrap;html=1;direction=south;fontSize=22;fontFamily=Comic Sans MS;fontStyle=1;fillColor=#d5e8d4;gradientColor=#97d077;strokeColor=#97D077;gradientDirection=east;fontColor=#FFFFFF;" parent="1" vertex="1">
          <mxGeometry x="230" y="780" width="480" height="120" as="geometry" />
        </mxCell>
        <mxCell id="-fn_32F01CiFZGLoMzf9-14" value="STD" style="rounded=1;whiteSpace=wrap;html=1;direction=south;fillColor=#dae8fc;gradientColor=#7ea6e0;strokeColor=#7EA6E0;gradientDirection=east;fontFamily=Comic Sans MS;fontColor=#FFFFFF;fontStyle=1" parent="1" vertex="1">
          <mxGeometry x="120" y="800" width="80" height="160" as="geometry" />
        </mxCell>
        <mxCell id="-fn_32F01CiFZGLoMzf9-15" value="BITMATH" style="rounded=1;whiteSpace=wrap;html=1;direction=south;fillColor=#dae8fc;gradientColor=#7ea6e0;strokeColor=#7EA6E0;gradientDirection=east;fontFamily=Comic Sans MS;fontColor=#FFFFFF;fontStyle=1" parent="1" vertex="1">
          <mxGeometry x="120" y="999" width="80" height="160" as="geometry" />
        </mxCell>
        <mxCell id="-fn_32F01CiFZGLoMzf9-18" value="&lt;font face=&quot;Comic Sans MS&quot; color=&quot;#ffffff&quot;&gt;&lt;b&gt;KEYPAD&lt;/b&gt;&lt;/font&gt;" style="rounded=1;whiteSpace=wrap;html=1;fillColor=#fff2cc;gradientColor=#ffd966;strokeColor=#FFD966;" parent="1" vertex="1">
          <mxGeometry x="250" y="940" width="60" height="80" as="geometry" />
        </mxCell>
        <mxCell id="-fn_32F01CiFZGLoMzf9-19" value="&lt;font face=&quot;Comic Sans MS&quot; color=&quot;#ffffff&quot;&gt;&lt;b&gt;LCD&lt;/b&gt;&lt;/font&gt;" style="rounded=1;whiteSpace=wrap;html=1;fillColor=#fff2cc;gradientColor=#ffd966;strokeColor=#FFD966;" parent="1" vertex="1">
          <mxGeometry x="327" y="940" width="68" height="80" as="geometry" />
        </mxCell>
        <mxCell id="-fn_32F01CiFZGLoMzf9-20" value="&lt;font face=&quot;Comic Sans MS&quot; color=&quot;#ffffff&quot;&gt;&lt;b&gt;ULTRA&lt;br&gt;SONIC&lt;/b&gt;&lt;/font&gt;" style="rounded=1;whiteSpace=wrap;html=1;fillColor=#fff2cc;gradientColor=#ffd966;strokeColor=#FFD966;" parent="1" vertex="1">
          <mxGeometry x="560" y="940" width="60" height="80" as="geometry" />
        </mxCell>
        <mxCell id="-fn_32F01CiFZGLoMzf9-21" value="&lt;font face=&quot;Comic Sans MS&quot; color=&quot;#ffffff&quot;&gt;&lt;b&gt;MOTOR&lt;/b&gt;&lt;/font&gt;" style="rounded=1;whiteSpace=wrap;html=1;fillColor=#fff2cc;gradientColor=#ffd966;strokeColor=#FFD966;imageWidth=24;" parent="1" vertex="1">
          <mxGeometry x="477" y="940" width="70" height="30" as="geometry" />
        </mxCell>
        <mxCell id="-fn_32F01CiFZGLoMzf9-22" value="&lt;font face=&quot;Comic Sans MS&quot; color=&quot;#ffffff&quot;&gt;&lt;b&gt;BUTTON&lt;/b&gt;&lt;/font&gt;" style="rounded=1;whiteSpace=wrap;html=1;fillColor=#fff2cc;gradientColor=#ffd966;strokeColor=#FFD966;" parent="1" vertex="1">
          <mxGeometry x="630" y="940" width="60" height="80" as="geometry" />
        </mxCell>
        <mxCell id="-fn_32F01CiFZGLoMzf9-23" value="&lt;font face=&quot;Comic Sans MS&quot; color=&quot;#ffffff&quot;&gt;&lt;b&gt;DIO&lt;/b&gt;&lt;/font&gt;" style="rounded=1;whiteSpace=wrap;html=1;fillColor=#f8cecc;gradientColor=#ea6b66;strokeColor=#EA6B66;" parent="1" vertex="1">
          <mxGeometry x="250" y="1080" width="140" height="80" as="geometry" />
        </mxCell>
        <mxCell id="-fn_32F01CiFZGLoMzf9-24" value="&lt;font face=&quot;Comic Sans MS&quot; color=&quot;#ffffff&quot;&gt;&lt;b&gt;TIMER&lt;/b&gt;&lt;/font&gt;" style="rounded=1;whiteSpace=wrap;html=1;fillColor=#f8cecc;gradientColor=#ea6b66;strokeColor=#EA6B66;" parent="1" vertex="1">
          <mxGeometry x="400" y="1080" width="140" height="80" as="geometry" />
        </mxCell>
        <mxCell id="-fn_32F01CiFZGLoMzf9-25" value="&lt;font face=&quot;Comic Sans MS&quot; color=&quot;#ffffff&quot;&gt;&lt;b&gt;EXTINT&lt;/b&gt;&lt;/font&gt;" style="rounded=1;whiteSpace=wrap;html=1;fillColor=#f8cecc;gradientColor=#ea6b66;strokeColor=#EA6B66;" parent="1" vertex="1">
          <mxGeometry x="550" y="1080" width="140" height="80" as="geometry" />
        </mxCell>
        <mxCell id="9es_LFO7aBAPDLjWvOCJ-1" value="&lt;font face=&quot;Comic Sans MS&quot; color=&quot;#ffffff&quot;&gt;&lt;b&gt;DELAY&lt;/b&gt;&lt;/font&gt;" style="rounded=1;whiteSpace=wrap;html=1;fillColor=#fff2cc;gradientColor=#ffd966;strokeColor=#FFD966;imageWidth=24;" vertex="1" parent="1">
          <mxGeometry x="407" y="940" width="55" height="80" as="geometry" />
        </mxCell>
        <mxCell id="9es_LFO7aBAPDLjWvOCJ-2" value="&lt;font face=&quot;Comic Sans MS&quot; color=&quot;#ffffff&quot;&gt;&lt;b&gt;PWM&lt;/b&gt;&lt;/font&gt;" style="rounded=1;whiteSpace=wrap;html=1;fillColor=#fff2cc;gradientColor=#ffd966;strokeColor=#FFD966;imageWidth=24;" vertex="1" parent="1">
          <mxGeometry x="477" y="990" width="70" height="30" as="geometry" />
        </mxCell>
      </root>
    </mxGraphModel>
  </diagram>
</mxfile>
